<?xml version="1.0" encoding="UTF-8"?>
<svg width="20px" height="20px" viewBox="0 0 20 20" version="1.1" xmlns="http://www.w3.org/2000/svg" xmlns:xlink="http://www.w3.org/1999/xlink">
    <!-- Generator: Sketch 48.2 (47327) - http://www.bohemiancoding.com/sketch -->
    <title>magnifier-1</title>
    <desc>Created with Sketch.</desc>
    <defs></defs>
    <g id="Quote-Flow-(8)---Underlying-Coverage-Modal-Auto-Liability-Copy-48" stroke="none" stroke-width="1" fill="none" fill-rule="evenodd" transform="translate(-267.000000, -21.000000)">
        <g id="Group-3" transform="translate(60.000000, 21.000000)" fill="#95A4B3">
            <g id="magnifier-1" transform="translate(206.000000, 0.000000)">
                <path d="M20.6715,19.7558333 C20.509,19.9183333 20.2965,20 20.084,20 C19.8715,20 19.659,19.9183333 19.4973333,19.7558333 L13.1198333,13.3541667 C11.8406667,14.3816667 10.2223333,15 8.4615,15 C4.3415,15 0.989,11.6358333 0.989,7.50083333 C0.989,3.365 4.3415,0 8.4615,0 C12.5815,0 15.9331667,3.365 15.9331667,7.50083333 C15.9331667,9.26833333 15.3173333,10.8925 14.294,12.1758333 L20.6715,18.5775 C20.9956667,18.9025 20.9956667,19.4308333 20.6715,19.7558333 Z M8.4615,1.66666667 C5.2565,1.66666667 2.64983333,4.28416667 2.64983333,7.50083333 C2.64983333,10.7166667 5.2565,13.3333333 8.4615,13.3333333 C11.6656667,13.3333333 14.2731667,10.7166667 14.2731667,7.50083333 C14.2731667,4.28416667 11.6656667,1.66666667 8.4615,1.66666667 Z" id="Shape"></path>
            </g>
        </g>
    </g>
</svg>