<?xml version="1.0" encoding="UTF-8"?>
<svg width="48px" height="42px" viewBox="0 0 48 42" version="1.1" xmlns="http://www.w3.org/2000/svg" xmlns:xlink="http://www.w3.org/1999/xlink">
    <!-- Generator: Sketch 48.2 (47327) - http://www.bohemiancoding.com/sketch -->
    <title>shop-1</title>
    <desc>Created with Sketch.</desc>
    <defs></defs>
    <g id="Quote-Flow-(8)---Underlying-Coverage-Modal-Auto-Liability-Copy-49" stroke="none" stroke-width="1" fill="none" fill-rule="evenodd" transform="translate(-779.000000, -636.000000)">
        <g id="shop-1" transform="translate(779.000000, 636.000000)" fill="#4579FF">
            <path d="M45.808,16.76 L45.808,39.906 C45.808,41.006 44.915,41.901 43.817,41.901 L3.986,41.901 C2.889,41.901 1.995,41.006 1.995,39.906 L1.995,16.76 C0.787,15.844 0.004,14.495 0.004,12.971 C0.004,12.952 0.013,12.936 0.014,12.917 C-0.005,12.789 0.001,12.654 0.036,12.521 L3.089,0.749 C3.095,0.725 3.112,0.708 3.12,0.684 C3.143,0.618 3.174,0.561 3.209,0.501 C3.241,0.447 3.271,0.395 3.312,0.348 C3.354,0.3 3.402,0.263 3.453,0.224 C3.504,0.185 3.552,0.147 3.609,0.118 C3.665,0.09 3.723,0.074 3.784,0.056 C3.849,0.038 3.912,0.022 3.98,0.017 C4.005,0.015 4.027,0.002 4.053,0.002 L43.751,0.002 C43.776,0.002 43.798,0.015 43.823,0.017 C43.89,0.022 43.951,0.038 44.015,0.056 C44.078,0.073 44.139,0.09 44.196,0.12 C44.25,0.147 44.296,0.183 44.344,0.219 C44.398,0.26 44.449,0.3 44.493,0.351 C44.532,0.396 44.561,0.446 44.592,0.498 C44.628,0.558 44.66,0.617 44.683,0.685 C44.691,0.708 44.708,0.725 44.715,0.749 L47.768,12.521 C47.803,12.654 47.808,12.789 47.789,12.917 C47.79,12.936 47.8,12.952 47.8,12.971 C47.8,14.495 47.016,15.844 45.808,16.76 Z M43.91,39.91 L43.91,17.701 C43.375,17.854 42.816,17.959 42.224,17.959 C40.326,17.959 38.651,17.103 37.643,15.803 C36.636,17.103 34.961,17.959 33.063,17.959 C31.37,17.959 29.859,17.276 28.836,16.207 C28.853,16.281 28.881,16.351 28.881,16.43 L28.881,39.908 L43.91,39.91 Z M3.986,39.906 L26.889,39.908 L26.889,17.168 C26.025,17.664 25.003,17.959 23.902,17.959 C22.004,17.959 20.329,17.103 19.321,15.803 C18.314,17.103 16.639,17.959 14.74,17.959 C12.843,17.959 11.168,17.103 10.16,15.803 C9.152,17.103 7.477,17.959 5.579,17.959 C5.022,17.959 4.495,17.863 3.986,17.726 L3.986,39.906 Z M42.958,1.909 L4.846,1.909 L1.987,12.93 C1.987,12.944 1.995,12.956 1.995,12.971 C1.995,14.621 3.603,15.963 5.579,15.963 C7.556,15.963 9.165,14.621 9.165,12.971 C9.165,12.42 9.61,11.973 10.16,11.973 C10.711,11.973 11.156,12.42 11.156,12.971 C11.156,14.621 12.765,15.963 14.74,15.963 C16.717,15.963 18.326,14.621 18.326,12.971 C18.326,12.42 18.771,11.973 19.322,11.973 C19.872,11.973 20.317,12.42 20.317,12.971 C20.317,14.621 21.926,15.963 23.902,15.963 C25.878,15.963 27.486,14.621 27.486,12.971 C27.486,12.42 27.932,11.973 28.482,11.973 C29.032,11.973 29.478,12.42 29.478,12.971 C29.478,14.621 31.086,15.963 33.063,15.963 C35.039,15.963 36.647,14.621 36.647,12.971 C36.647,12.42 37.093,11.973 37.643,11.973 C38.193,11.973 38.639,12.42 38.639,12.971 C38.639,14.621 40.247,15.963 42.224,15.963 C44.2,15.963 45.808,14.621 45.808,12.971 C45.808,12.956 45.816,12.944 45.817,12.93 L42.958,1.909 Z M13.019,22.576 C13.224,22.064 13.807,21.817 14.314,22.021 C14.824,22.226 15.073,22.807 14.869,23.317 L10.886,33.293 C10.73,33.684 10.356,33.921 9.961,33.921 C9.838,33.921 9.712,33.898 9.592,33.849 C9.081,33.644 8.832,33.064 9.036,32.553 L13.019,22.576 Z M17.998,22.576 C18.202,22.064 18.786,21.817 19.293,22.021 C19.803,22.226 20.052,22.807 19.848,23.317 L15.865,33.293 C15.709,33.684 15.335,33.921 14.94,33.921 C14.816,33.921 14.691,33.898 14.57,33.849 C14.06,33.644 13.811,33.064 14.015,32.553 L17.998,22.576 Z M32.91,28.909 L30.91,28.909 L30.91,26.909 L32.91,26.909 L32.91,28.909 Z" id="Shape"></path>
        </g>
    </g>
</svg>