<?xml version="1.0" encoding="UTF-8"?>
<svg width="24px" height="22px" viewBox="0 0 24 22" version="1.1" xmlns="http://www.w3.org/2000/svg" xmlns:xlink="http://www.w3.org/1999/xlink">
    <!-- Generator: Sketch 48.2 (47327) - http://www.bohemiancoding.com/sketch -->
    <title>shop-1</title>
    <desc>Created with Sketch.</desc>
    <defs></defs>
    <g id="Quote-Flow-(8)---Underlying-Coverage-Modal-Auto-Liability-Copy-48" stroke="none" stroke-width="1" fill="none" fill-rule="evenodd" transform="translate(-18.000000, -143.000000)">
        <g id="shop-1" transform="translate(18.000000, 143.000000)" fill="#4579FF">
            <path d="M22.843,10.134 L22.843,19.928 C22.843,21.027 21.952,21.921 20.857,21.921 L2.985,21.921 C1.891,21.921 0.999,21.027 0.999,19.928 L0.999,10.134 C0.44,9.633 0.083,8.943 0.028,8.173 C0.026,8.165 0.027,8.156 0.025,8.147 C0.021,8.089 0.007,8.034 0.007,7.975 C0.007,7.939 0.023,7.908 0.027,7.873 C0.031,7.838 0.021,7.805 0.028,7.771 L1.484,0.798 C1.491,0.766 1.512,0.742 1.522,0.711 C1.542,0.644 1.568,0.584 1.601,0.524 C1.632,0.47 1.664,0.42 1.703,0.373 C1.745,0.322 1.79,0.28 1.841,0.238 C1.89,0.199 1.937,0.166 1.992,0.136 C2.049,0.105 2.107,0.083 2.17,0.064 C2.232,0.044 2.294,0.032 2.36,0.025 C2.393,0.022 2.422,0.006 2.456,0.006 L21.386,0.006 C21.419,0.006 21.446,0.021 21.478,0.024 C21.544,0.031 21.606,0.044 21.669,0.063 C21.732,0.082 21.79,0.104 21.847,0.134 C21.901,0.163 21.949,0.197 21.997,0.235 C22.048,0.277 22.095,0.319 22.137,0.37 C22.177,0.417 22.208,0.467 22.239,0.521 C22.272,0.58 22.299,0.64 22.32,0.706 C22.329,0.736 22.35,0.759 22.357,0.791 L23.813,7.514 C23.841,7.642 23.839,7.769 23.819,7.891 C23.821,7.92 23.836,7.945 23.836,7.975 C23.836,8.825 23.451,9.589 22.843,10.134 Z M14.9,19.936 L21,19.94 L21,10.93 C20.886,10.942 20.775,10.963 20.657,10.963 C19.81,10.963 19.043,10.645 18.473,10.134 C17.903,10.645 17.136,10.963 16.289,10.963 C15.789,10.963 15.321,10.844 14.9,10.649 L14.9,19.936 Z M2.985,19.928 L13,19.935 L13,10.773 C12.661,10.889 12.301,10.963 11.92,10.963 C11.073,10.963 10.306,10.645 9.736,10.134 C9.166,10.645 8.399,10.963 7.552,10.963 C6.705,10.963 5.938,10.645 5.368,10.134 C4.798,10.645 4.031,10.963 3.183,10.963 C3.115,10.963 3.052,10.948 2.985,10.944 L2.985,19.928 Z M3.183,8.971 C3.84,8.971 4.376,8.524 4.376,7.975 C4.376,7.425 4.82,6.978 5.369,6.978 C5.917,6.978 6.361,7.425 6.361,7.975 C6.361,8.524 6.896,8.971 7.552,8.971 C8.208,8.971 8.743,8.524 8.743,7.975 C8.743,7.425 9.187,6.978 9.736,6.978 C10.285,6.978 10.729,7.425 10.729,7.975 C10.729,8.524 11.263,8.971 11.92,8.971 C12.577,8.971 13.113,8.524 13.113,7.975 C13.113,7.425 13.557,6.978 14.106,6.978 C14.654,6.978 15.098,7.425 15.098,7.975 C15.098,8.524 15.633,8.971 16.289,8.971 C16.946,8.971 17.48,8.524 17.48,7.975 C17.48,7.425 17.924,6.978 18.473,6.978 C19.022,6.978 19.466,7.425 19.466,7.975 C19.466,8.524 20,8.971 20.657,8.971 C21.315,8.971 21.85,8.524 21.85,7.975 C21.85,7.949 21.863,7.927 21.865,7.902 L20.573,1.94 L3.274,1.94 L2.004,8.022 C2.035,8.548 2.546,8.971 3.183,8.971 Z M17.878,15.944 L15.893,15.944 L15.893,13.951 L17.878,13.951 L17.878,15.944 Z" id="Shape"></path>
        </g>
    </g>
</svg>
